<?xml version="1.0" standalone="no"?>
<!DOCTYPE svg PUBLIC "-//W3C//DTD SVG 20010904//EN"
 "http://www.w3.org/TR/2001/REC-SVG-20010904/DTD/svg10.dtd">
<svg version="1.0" xmlns="http://www.w3.org/2000/svg"
 width="2133.000000pt" height="2133.000000pt" viewBox="0 0 2133.000000 2133.000000"
 preserveAspectRatio="xMidYMid meet">

<g transform="translate(0.000000,2133.000000) scale(0.100000,-0.100000)"
fill="#000000" stroke="none">
<path d="M3960 20660 c-1021 -13 -1462 -33 -1636 -75 -542 -129 -1042 -502
-1338 -999 -117 -196 -229 -485 -261 -673 -42 -251 -59 -1003 -59 -2583 0
-1523 16 -2296 55 -2560 22 -148 99 -372 196 -565 280 -561 801 -974 1422
-1129 272 -68 346 -70 2251 -68 1707 2 2656 13 2885 33 212 18 377 69 619 192
508 257 904 700 1100 1228 107 289 117 437 137 1937 17 1209 -3 2769 -42 3322
-13 188 -28 265 -84 437 -224 682 -755 1194 -1459 1407 -137 42 -214 53 -466
66 -559 28 -2247 44 -3320 30z"/>
<path d="M15290 20660 c-1069 -14 -1475 -34 -1658 -81 -509 -131 -966 -459
-1257 -903 -193 -294 -311 -616 -334 -912 -39 -498 -60 -2094 -43 -3347 21
-1551 31 -1682 157 -2004 256 -655 771 -1124 1447 -1318 232 -67 389 -80 1088
-90 567 -8 3647 12 3925 25 313 15 388 27 573 96 548 204 1008 624 1258 1149
102 215 158 406 173 595 66 801 66 3986 0 4875 -37 504 -323 1039 -743 1392
-277 233 -697 433 -993 472 -314 42 -2202 69 -3593 51z"/>
<path d="M3375 9320 c-403 -10 -785 -27 -910 -40 -49 -6 -139 -24 -198 -41
-713 -201 -1263 -739 -1492 -1460 -64 -203 -74 -308 -97 -1034 -17 -526 -17
-2964 0 -3490 24 -739 33 -837 103 -1053 112 -342 285 -628 529 -873 188 -189
358 -311 591 -424 229 -110 425 -171 647 -200 224 -30 828 -37 2402 -30 1584
6 2336 17 2535 35 204 19 361 67 585 178 452 226 816 588 1029 1026 120 245
173 427 190 646 68 886 61 4291 -10 4954 -12 118 -61 294 -124 449 -231 565
-667 991 -1242 1213 -254 98 -348 112 -908 135 -331 13 -3153 20 -3630 9z"/>
<path d="M15863 9309 c-294 -21 -708 -129 -1133 -296 -1001 -393 -1822 -1157
-2296 -2137 -197 -408 -333 -857 -394 -1295 -59 -425 -52 -873 21 -1296 227
-1334 1083 -2505 2284 -3126 857 -443 1848 -590 2785 -413 1142 215 2150 887
2809 1872 550 823 799 1826 696 2803 -80 763 -336 1456 -762 2067 -403 578
-957 1053 -1602 1376 -375 188 -801 335 -1121 385 -367 59 -940 85 -1287 60z"/>
</g>
</svg>
