<?xml version="1.0" encoding="UTF-8"?>
<svg data-bbox="16.521 16.569 367.015 366.972" viewBox="0 0 400 400" height="400" width="400" xmlns="http://www.w3.org/2000/svg" data-type="color">
    <g>
        <path fill-rule="evenodd" fill="#fafbfc" d="M278.108 135.79c-3.811 1.074-5.212 2.395-50.406 47.547l-44.897 44.857-20.503-20.446c-23.635-23.571-22.521-22.701-29.102-22.714-10.896-.02-18.334 11.091-14.033 20.966 1.495 3.433 53.812 55.817 57.403 57.477 3.538 1.635 8.92 1.636 12.454.002C192.696 261.782 294.574 159.805 296 156.4c4.881-11.655-5.84-24.004-17.892-20.61" data-color="1"/>
        <path fill-rule="evenodd" fill="#7099ff" d="M189.032 16.829C104.916 21.171 32.613 86.137 19.006 169.6-1.163 293.315 104.416 400.29 228 381.357c75.713-11.599 136.696-69.751 151.803-144.757C403.64 118.253 310.171 10.576 189.032 16.829m99.824 119.8c7.633 3.867 10.506 12.07 7.097 20.261-1.22 2.931-102.321 104.345-105.934 106.262-4.602 2.441-9.522 2.501-14.206.173-3.166-1.574-54.591-53.033-56.2-56.237-5.683-11.316 3.006-23.651 15.672-22.25 4.957.549 5.135.697 27.217 22.709l20.301 20.238 45.099-45.017c48.959-48.871 46.709-46.812 51.911-47.482 3.209-.414 6.559.084 9.043 1.343" data-color="2"/>
        <path fill-rule="evenodd" fill="#a9c2fc" d="M227.3 183.299l-44.499 44.499-20.1-19.998-20.101-19.999L162.7 208l20.1 20.199 44.7-44.699c24.585-24.585 44.61-44.7 44.5-44.7-.11 0-20.225 20.025-44.7 44.499m70.009-32.899c0 .99.078 1.395.173.9a5.661 5.661 0 0 0 0-1.8c-.095-.495-.173-.09-.173.9m-179.608 49.8c.004.88.086 1.193.182.695.096-.497.092-1.217-.008-1.6-.1-.382-.179.025-.174.905m64.199 64.882a5.661 5.661 0 0 0 1.8 0c.495-.095.09-.173-.9-.173s-1.395.078-.9.173" data-color="3"/>
        <path fill-rule="evenodd" fill="#bcccfc" d="M242.599 211.3L192.6 261.4l50.1-49.999c27.555-27.5 50.1-50.045 50.1-50.1 0-.28-3.717 3.421-50.201 49.999M147 235.6c13.859 13.86 25.288 25.2 25.398 25.2.11 0-11.139-11.34-24.998-25.2-13.859-13.86-25.288-25.2-25.398-25.2-.11 0 11.139 11.34 24.998 25.2" data-color="4"/>
    </g>
</svg>
